<?xml version="1.0" encoding="UTF-8" standalone="no"?>
<svg
   xmlns:dc="http://purl.org/dc/elements/1.1/"
   xmlns:cc="http://creativecommons.org/ns#"
   xmlns:rdf="http://www.w3.org/1999/02/22-rdf-syntax-ns#"
   xmlns:svg="http://www.w3.org/2000/svg"
   xmlns="http://www.w3.org/2000/svg"
   viewBox="0 0 80 80"
   height="80"
   width="80"
   xml:space="preserve"
   version="1.1"
   id="svg2"><metadata
     id="metadata8"><rdf:RDF><cc:Work
         rdf:about=""><dc:format>image/svg+xml</dc:format><dc:type
           rdf:resource="http://purl.org/dc/dcmitype/StillImage" /><dc:title></dc:title></cc:Work></rdf:RDF></metadata><defs
     id="defs6"><clipPath
       id="clipPath16"
       clipPathUnits="userSpaceOnUse"><path
         id="path18"
         d="M 0,64 64,64 64,0 0,0 0,64 Z" /></clipPath><clipPath
       id="clipPath28"
       clipPathUnits="userSpaceOnUse"><path
         id="path30"
         d="M 22.8469,30.2373 41,30.2373 41,15 l -18.1531,0 0,15.2373 z" /></clipPath><clipPath
       id="clipPath48"
       clipPathUnits="userSpaceOnUse"><path
         id="path50"
         d="m 10,43 42,0 0,-26 -42,0 0,26 z" /></clipPath></defs><g
     transform="matrix(1.25,0,0,-1.25,0,80)"
     id="g10"><g
       id="g12"><g
         clip-path="url(#clipPath16)"
         id="g14"><g
           transform="translate(64,32)"
           id="g20"><path
             id="path22"
             style="fill:#f5cf87;fill-opacity:1;fill-rule:nonzero;stroke:none"
             d="m 0,0 c 0,-17.673 -14.327,-32 -32,-32 -17.673,0 -32,14.327 -32,32 0,17.673 14.327,32 32,32 C -14.327,32 0,17.673 0,0" /></g><g
           id="g24"><g
             id="g26" /><g
             id="g32"><g
               style="opacity:0.19999701"
               id="g34"
               clip-path="url(#clipPath28)"><g
                 id="g36"
                 transform="translate(27.794,27.2373)"><path
                   id="path38"
                   style="fill:#231f20;fill-opacity:1;fill-rule:nonzero;stroke:none"
                   d="m 0,0 c -0.188,0 -0.419,-0.119 -0.484,-0.38 l -1.448,-5.822 c -0.067,-0.268 0.097,-0.54 0.365,-0.606 l 9.704,-2.414 c 0.227,-0.058 0.527,0.047 0.606,0.365 l 1.448,5.822 c 0.066,0.267 -0.097,0.539 -0.365,0.606 L 0.122,-0.015 C 0.082,-0.005 0.041,0 0,0 m 8.259,-12.237 c -0.284,0 -0.57,0.035 -0.847,0.104 l -9.704,2.414 c -1.873,0.466 -3.017,2.368 -2.551,4.241 l 1.448,5.823 C -3.006,1.908 -1.61,3 0,3 0.284,3 0.569,2.965 0.847,2.896 l 9.704,-2.414 c 1.872,-0.466 3.017,-2.369 2.551,-4.241 l -1.448,-5.823 c -0.389,-1.564 -1.785,-2.655 -3.395,-2.655" /></g></g></g></g><g
           transform="translate(27.794,29.2373)"
           id="g40"><path
             id="path42"
             style="fill:#4f5d73;fill-opacity:1;fill-rule:nonzero;stroke:none"
             d="m 0,0 c -0.188,0 -0.419,-0.119 -0.484,-0.38 l -1.448,-5.822 c -0.067,-0.268 0.097,-0.54 0.365,-0.606 l 9.704,-2.414 c 0.227,-0.058 0.527,0.047 0.606,0.365 l 1.448,5.822 c 0.066,0.267 -0.097,0.539 -0.365,0.606 L 0.122,-0.015 C 0.082,-0.005 0.041,0 0,0 m 8.259,-12.237 c -0.284,0 -0.57,0.035 -0.847,0.104 l -9.704,2.414 c -1.873,0.466 -3.017,2.368 -2.551,4.241 l 1.448,5.823 C -3.006,1.908 -1.61,3 0,3 0.284,3 0.569,2.965 0.847,2.896 l 9.704,-2.414 c 1.872,-0.466 3.017,-2.369 2.551,-4.241 l -1.448,-5.823 c -0.389,-1.564 -1.785,-2.655 -3.395,-2.655" /></g><g
           id="g44"><g
             id="g46" /><g
             id="g52"><g
               style="opacity:0.19999701"
               id="g54"
               clip-path="url(#clipPath48)"><g
                 id="g56"
                 transform="translate(50,43)"><path
                   id="path58"
                   style="fill:#231f20;fill-opacity:1;fill-rule:nonzero;stroke:none"
                   d="m 0,0 c -1.105,0 -2,-0.895 -2,-2 l 0,0.5 -34.336,-7.391 C -36.695,-8.354 -37.306,-8 -38,-8 c -1.105,0 -2,-0.895 -2,-2 l 0,-6 c 0,-1.105 0.895,-2 2,-2 0.694,0 1.305,0.354 1.664,0.891 L -2,-24.5 -2,-24 c 0,-1.105 0.895,-2 2,-2 1.105,0 2,0.895 2,2 L 2,-2 C 2,-0.895 1.105,0 0,0" /></g></g></g></g><g
           transform="translate(48,20.5)"
           id="g60"><path
             id="path62"
             style="fill:#c75c5c;fill-opacity:1;fill-rule:nonzero;stroke:none"
             d="m 0,0 -37,8 0,7 37,8 0,-23 z" /></g><g
           transform="translate(14,29)"
           id="g64"><path
             id="path66"
             style="fill:#e0995e;fill-opacity:1;fill-rule:nonzero;stroke:none"
             d="m 0,0 c 0,-1.105 -0.895,-2 -2,-2 -1.105,0 -2,0.895 -2,2 l 0,6 c 0,1.105 0.895,2 2,2 1.105,0 2,-0.895 2,-2 L 0,0 Z" /></g><g
           transform="translate(52,21)"
           id="g68"><path
             id="path70"
             style="fill:#e0995e;fill-opacity:1;fill-rule:nonzero;stroke:none"
             d="m 0,0 c 0,-1.105 -0.895,-2 -2,-2 -1.105,0 -2,0.895 -2,2 l 0,22 c 0,1.105 0.895,2 2,2 1.105,0 2,-0.895 2,-2 L 0,0 Z" /></g></g></g></g></svg>